<?xml version="1.0" encoding="utf-8"?>
<!-- Generator: Adobe Illustrator 18.1.1, SVG Export Plug-In . SVG Version: 6.00 Build 0)  -->
<svg version="1.1" id="Layer_1" xmlns="http://www.w3.org/2000/svg" xmlns:xlink="http://www.w3.org/1999/xlink" x="0px" y="0px"
	 viewBox="74.2 16.1 31.2 29.5" enable-background="new 74.2 16.1 31.2 29.5" xml:space="preserve">
<polygon fill="#FFFFFF" points="104.4,30.1 104.4,44.6 75.3,44.6 75.3,17.2 90,17.2 90,16.1 74.2,16.1 74.2,45.6 105.4,45.6 
	105.4,30.1 "/>
<path fill="#FFFFFF" d="M89.1,24.1c-0.3,0.3-0.5,0.6-0.5,1.1c0,0.4,0.2,0.8,0.5,1.1c0.3,0.3,0.6,0.5,1.1,0.5c0.4,0,0.8-0.2,1.1-0.5
	c0.3-0.3,0.5-0.7,0.5-1.1c0-0.5-0.2-0.8-0.5-1.1c-0.3-0.3-0.7-0.4-1.1-0.4C89.8,23.6,89.5,23.8,89.1,24.1z"/>
<rect x="89.4" y="29.7" fill="#FFFFFF" width="1.6" height="8.2"/>
</svg>
