<?xml version="1.0" encoding="utf-8"?>
<!-- Generator: Adobe Illustrator 18.1.1, SVG Export Plug-In . SVG Version: 6.00 Build 0)  -->
<svg version="1.1" baseProfile="tiny" id="Layer_1" xmlns="http://www.w3.org/2000/svg" xmlns:xlink="http://www.w3.org/1999/xlink"
	 x="0px" y="0px" viewBox="0 0 77.4 69.9" xml:space="preserve">
<path fill="#FFFFFF" stroke="#FFFFFF" stroke-width="2" stroke-miterlimit="10" d="M76.4,68.9c-25.1,0-50.1,0-75.4,0
	C1,46.4,1,23.7,1,1c0.5,0,0.9,0,1.4,0c0,21.9,0,43.8,0,66.2c25.2,0,49.6,0,74,0C76.4,67.8,76.4,68.4,76.4,68.9z"/>
<path fill="#FFFFFF" stroke="#FFFFFF" stroke-width="2" stroke-miterlimit="10" d="M48.4,24.1c0,10.8,0,21.6,0,32.3
	c-0.4,0-0.8,0-1.1,0c0-10.8,0-21.6,0-32.3C47.6,24.1,48,24.1,48.4,24.1z"/>
<path fill="#FFFFFF" stroke="#FFFFFF" stroke-width="2" stroke-miterlimit="10" d="M31.7,10.7c0,15.2,0,30.5,0,45.7
	c-0.4,0-0.8,0-1.1,0c0-15.2,0-30.5,0-45.7C30.9,10.7,31.3,10.7,31.7,10.7z"/>
<path fill="#FFFFFF" stroke="#FFFFFF" stroke-width="2" stroke-miterlimit="10" d="M65,56.4c0-8.6,0-17.3,0-25.9c0.4,0,0.7,0,1.1,0
	c0,8.6,0,17.3,0,25.9C65.7,56.4,65.3,56.4,65,56.4z"/>
<path fill="#FFFFFF" stroke="#FFFFFF" stroke-width="2" stroke-miterlimit="10" d="M15.1,56.4c0-7.3,0-14.7,0-22c0.4,0,0.7,0,1.1,0
	c0,7.3,0,14.7,0,22C15.8,56.4,15.4,56.4,15.1,56.4z"/>
</svg>
