<?xml version="1.0" encoding="utf-8"?>
<!-- Generator: Adobe Illustrator 18.1.1, SVG Export Plug-In . SVG Version: 6.00 Build 0)  -->
<svg version="1.1" id="Layer_1" xmlns="http://www.w3.org/2000/svg" xmlns:xlink="http://www.w3.org/1999/xlink" x="0px" y="0px"
	 viewBox="146.4 219.1 52 52" enable-background="new 146.4 219.1 52 52" xml:space="preserve">
<path fill="#434A54" d="M185,239.5c0-10.1-8.1-18.1-18.1-18.1c-10.1,0-18.1,8.1-18.1,18.1c0,10.1,8.1,18.1,18.1,18.1
	C176.8,257.7,185,249.5,185,239.5z M198.4,269.5l-1.6,1.6l-16.5-16.5c-3.6,3.2-8.3,5.2-13.6,5.2c-11.3,0-20.4-9.1-20.4-20.4
	c0-11.3,9.1-20.4,20.4-20.4c11.3,0,20.4,9.1,20.4,20.4c0,5.2-2,10-5.2,13.6L198.4,269.5z"/>
</svg>
