<?xml version="1.0" encoding="utf-8"?>
<!-- Generator: Adobe Illustrator 18.1.1, SVG Export Plug-In . SVG Version: 6.00 Build 0)  -->
<svg version="1.1" id="Layer_1" xmlns="http://www.w3.org/2000/svg" xmlns:xlink="http://www.w3.org/1999/xlink" x="0px" y="0px"
	 viewBox="122.4 219.1 367.2 367.2" enable-background="new 122.4 219.1 367.2 367.2" xml:space="preserve">
<path fill="#FFFFFF" d="M394.7,363c0-71-57.5-127.9-127.9-127.9c-71,0-127.9,57.5-127.9,127.9c0,71,57.5,127.9,127.9,127.9
	C337.2,491.5,394.7,433.9,394.7,363z M489.6,575.3l-11,11L362.3,470.1c-25.7,22.6-58.8,36.7-96.1,36.7
	c-79.6,0-143.8-64.3-143.8-143.8s64.3-143.8,143.8-143.8S410,283.4,410,363c0,36.7-14.1,70.4-36.7,96.1L489.6,575.3z"/>
</svg>
